<svg width="15" height="15" viewBox="0 0 15 15" fill="none" xmlns="http://www.w3.org/2000/svg">
<g clip-path="url(#clip0_3_507)">
<path d="M7.5 0C3.35742 0 0 3.35742 0 7.5C0 11.6426 3.35742 15 7.5 15C11.6426 15 15 11.6426 15 7.5C15 3.35742 11.6426 0 7.5 0ZM7.5 13.5938C4.13965 13.5938 1.40625 10.8601 1.40625 7.5C1.40625 4.13994 4.13965 1.40625 7.5 1.40625C10.8604 1.40625 13.5938 4.13994 13.5938 7.5C13.5938 10.8601 10.8604 13.5938 7.5 13.5938ZM7.5 9.84375C6.97266 9.84375 6.5625 10.2539 6.5625 10.7812C6.5625 11.3086 6.94629 11.7188 7.5 11.7188C8.00098 11.7188 8.4375 11.3086 8.4375 10.7812C8.4375 10.2539 8.00098 9.84375 7.5 9.84375ZM8.46973 3.75H6.97266C5.83008 3.75 4.92188 4.6582 4.92188 5.80078C4.92188 6.18164 5.24414 6.50391 5.625 6.50391C6.00586 6.50391 6.32812 6.18164 6.32812 5.80078C6.32812 5.44922 6.59473 5.15625 6.94629 5.15625H8.44336C8.82129 5.15625 9.14062 5.44922 9.14062 5.80078C9.14062 6.03516 9.02344 6.21387 8.81836 6.33105L7.14844 7.35352C6.91406 7.5 6.79688 7.73438 6.79688 7.96875V8.4375C6.79688 8.81836 7.11914 9.14062 7.5 9.14062C7.88086 9.14062 8.20312 8.81836 8.20312 8.4375V8.37891L9.52441 7.55859C10.1396 7.17773 10.5205 6.50391 10.5205 5.80078C10.5469 4.6582 9.63867 3.75 8.46973 3.75Z" fill="#908F8F"/>
</g>
<defs>
<clipPath id="clip0_3_507">
<rect width="15" height="15" fill="white"/>
</clipPath>
</defs>
</svg>
