<svg width="94" height="94" viewBox="0 0 94 94" fill="none" xmlns="http://www.w3.org/2000/svg">
<path fill-rule="evenodd" clip-rule="evenodd" d="M71.5 45C83.9264 45 94 34.9264 94 22.5C94 10.0736 83.9264 0 71.5 0C59.0736 0 49 10.0736 49 22.5C49 34.9264 59.0736 45 71.5 45ZM71.5 33.75C77.7132 33.75 82.75 28.7132 82.75 22.5C82.75 16.2868 77.7132 11.25 71.5 11.25C65.2868 11.25 60.25 16.2868 60.25 22.5C60.25 28.7132 65.2868 33.75 71.5 33.75Z" fill="#16EAB7"/>
<path fill-rule="evenodd" clip-rule="evenodd" d="M71.5 94C83.9264 94 94 83.9264 94 71.5C94 59.0736 83.9264 49 71.5 49C59.0736 49 49 59.0736 49 71.5C49 83.9264 59.0736 94 71.5 94ZM71.5 82.75C77.7132 82.75 82.75 77.7132 82.75 71.5C82.75 65.2868 77.7132 60.25 71.5 60.25C65.2868 60.25 60.25 65.2868 60.25 71.5C60.25 77.7132 65.2868 82.75 71.5 82.75Z" fill="#10C6FF"/>
<path fill-rule="evenodd" clip-rule="evenodd" d="M22.5 49C27.3797 49 31.8966 50.5534 35.5832 53.1927L31.047 61.0496C28.7193 59.1436 25.7432 58 22.5 58C15.0442 58 9 64.0442 9 71.5C9 78.9558 15.0442 85 22.5 85C27.6805 85 32.1794 82.082 34.4429 77.8H25.2L27 72.4L35.9705 72.4H44.9823L45 72.4L44.9808 72.4384C44.4888 84.4296 34.6121 94 22.5 94C10.0736 94 0 83.9264 0 71.5C0 59.0736 10.0736 49 22.5 49Z" fill="#FF0000"/>
<path fill-rule="evenodd" clip-rule="evenodd" d="M0 0H9V45H0V0ZM36 0H45V45H36L9.00001 14.4V0L36 30.6L36 0Z" fill="#FFE600"/>
</svg>
